<?xml version="1.0" encoding="UTF-8"?>
<svg id="Layer_1" xmlns="http://www.w3.org/2000/svg" version="1.1" viewBox="0 0 621 196">
  <!-- Generator: Adobe Illustrator 29.0.1, SVG Export Plug-In . SVG Version: 2.1.0 Build 192)  -->
  <defs>
    <style>
      .st0 {
        fill: #fff;
      }

      .st1, .st2 {
        fill: #f6934c;
      }

      .st2 {
        font-family: Outfit-Regular, Outfit;
        font-size: 78.3px;
      }
    </style>
  </defs>
  <g>
    <g>
      <rect class="st0" x="241.4" y="33.7" width="26" height="8.7"/>
      <rect class="st0" x="250" y="12.9" width="8.7" height="104.5"/>
    </g>
    <g>
      <polygon class="st0" points="162 71.3 162 80 239.5 80 239.3 71.3 162 71.3"/>
      <path class="st0" d="M228.3,92.2c-5.8,9.9-16.5,16.6-28.9,16.6-18.4,0-33.3-14.9-33.3-33.3s14.9-33.2,33.3-33.2,33.3,14.9,33.3,33.2-.1,2.9-.3,4.3h8.8c.1-1.4.2-2.9.2-4.3,0-23.2-18.8-41.9-42-41.9s-42,18.8-42,41.9,18.8,41.9,42,41.9,29.1-8.4,36.4-21l-7.5-4.3Z"/>
    </g>
    <path class="st0" d="M351.5,75.6c0,23.2-18.8,41.9-42,41.9s-42-18.8-42-41.9,18.8-41.9,42-41.9,42,18.8,42,41.9ZM309.4,42.4c-18.4,0-33.3,14.9-33.3,33.2s14.9,33.2,33.3,33.2,33.3-14.9,33.3-33.2-14.9-33.2-33.3-33.2Z"/>
    <g>
      <path class="st0" d="M399.6,117.5c-23.2,0-42-18.8-42-41.9s18.8-41.9,42-41.9,42,18.8,42,41.9-18.8,41.9-42,41.9ZM432.9,75.6c0-18.4-14.9-33.2-33.3-33.2s-33.3,14.9-33.3,33.2,14.9,33.2,33.3,33.2c18.4,0,33.3-14.9,33.3-33.2Z"/>
      <rect class="st0" x="357.6" y="38" width="8.7" height="100.3"/>
    </g>
    <g>
      <path class="st0" d="M462.7,75.6c0-23.2,18.8-41.9,42-41.9s42,18.8,42,41.9-18.8,41.9-42,41.9-42-18.8-42-41.9ZM504.8,108.9c18.4,0,33.3-14.9,33.3-33.2s-14.9-33.2-33.3-33.2-33.3,14.9-33.3,33.2,14.9,33.2,33.3,33.2Z"/>
      <rect class="st0" x="538.1" y="38" width="8.7" height="79.4"/>
    </g>
    <polygon class="st1" points="456.6 38 469.1 25.5 456.6 12.9 456.6 38"/>
    <polygon class="st0" points="447.9 117.4 456.6 117.4 456.6 38 447.9 46.6 447.9 117.4"/>
    <g>
      <path class="st0" d="M151.3,75.6c0,23.2-18.8,41.9-42,41.9s-42-18.8-42-41.9,18.8-41.9,42-41.9,42,18.8,42,41.9ZM109.2,42.4c-18.4,0-33.3,14.9-33.3,33.2s14.9,33.2,33.3,33.2,33.3-14.9,33.3-33.2-14.9-33.2-33.3-33.2Z"/>
      <rect class="st0" x="67.2" y="12.9" width="8.7" height="104.5"/>
    </g>
  </g>
  <text class="st2" transform="translate(408.4 182.5)"><tspan x="0" y="0">ERP</tspan></text>
</svg>