<?xml version="1.0" encoding="UTF-8"?>
<svg id="Layer_1" xmlns="http://www.w3.org/2000/svg" version="1.1" viewBox="0 0 621 196">
  <!-- Generator: Adobe Illustrator 29.0.1, SVG Export Plug-In . SVG Version: 2.1.0 Build 192)  -->
  <defs>
    <style>
      .st0, .st1 {
        fill: #f6934c;
      }

      .st2 {
        fill: #231f20;
      }

      .st1 {
        font-family: Outfit-Regular, Outfit;
        font-size: 78.3px;
      }
    </style>
  </defs>
  <g>
    <g>
      <rect class="st2" x="243.9" y="25.8" width="26" height="8.7"/>
      <rect class="st2" x="252.5" y="5" width="8.7" height="104.5"/>
    </g>
    <g>
      <polygon class="st2" points="164.5 63.4 164.5 72.1 242 72.1 241.8 63.4 164.5 63.4"/>
      <path class="st2" d="M230.7,84.4c-5.8,9.9-16.5,16.6-28.9,16.6-18.4,0-33.3-14.9-33.3-33.3s14.9-33.2,33.3-33.2,33.3,14.9,33.3,33.2-.1,2.9-.3,4.3h8.8c.1-1.4.2-2.9.2-4.3,0-23.2-18.8-41.9-42-41.9s-42,18.8-42,41.9,18.8,41.9,42,41.9,29.1-8.4,36.4-21l-7.5-4.3Z"/>
    </g>
    <path class="st2" d="M353.9,67.7c0,23.2-18.8,41.9-42,41.9s-42-18.8-42-41.9,18.8-41.9,42-41.9,42,18.8,42,41.9ZM311.9,34.5c-18.4,0-33.3,14.9-33.3,33.2s14.9,33.2,33.3,33.2,33.3-14.9,33.3-33.2-14.9-33.2-33.3-33.2Z"/>
    <g>
      <path class="st2" d="M402.1,109.7c-23.2,0-42-18.8-42-41.9s18.8-41.9,42-41.9,42,18.8,42,41.9-18.8,41.9-42,41.9ZM435.4,67.7c0-18.4-14.9-33.2-33.3-33.2s-33.3,14.9-33.3,33.2,14.9,33.2,33.3,33.2c18.4,0,33.3-14.9,33.3-33.2Z"/>
      <rect class="st2" x="360" y="30.2" width="8.7" height="100.3"/>
    </g>
    <g>
      <path class="st2" d="M465.2,67.7c0-23.2,18.8-41.9,42-41.9s42,18.8,42,41.9-18.8,41.9-42,41.9-42-18.8-42-41.9ZM507.2,101c18.4,0,33.3-14.9,33.3-33.2s-14.9-33.2-33.3-33.2-33.3,14.9-33.3,33.2,14.9,33.2,33.3,33.2Z"/>
      <rect class="st2" x="540.6" y="30.1" width="8.7" height="79.4"/>
    </g>
    <polygon class="st0" points="459 30.2 471.6 17.6 459 5.1 459 30.2"/>
    <polygon class="st2" points="450.3 109.6 459 109.6 459 30.2 450.3 38.8 450.3 109.6"/>
    <g>
      <path class="st2" d="M153.7,67.7c0,23.2-18.8,41.9-42,41.9s-42-18.8-42-41.9,18.8-41.9,42-41.9,42,18.8,42,41.9ZM111.7,34.5c-18.4,0-33.3,14.9-33.3,33.2s14.9,33.2,33.3,33.2,33.3-14.9,33.3-33.2-14.9-33.2-33.3-33.2Z"/>
      <rect class="st2" x="69.7" y="5" width="8.7" height="104.5"/>
    </g>
  </g>
  <text class="st1" transform="translate(410.9 174.6)"><tspan x="0" y="0">ERP</tspan></text>
</svg>